<svg xmlns="http://www.w3.org/2000/svg" width="220" height="220" viewBox="0 0 220 220">
  <rect width="220" height="220" fill="#fff"/>
  <rect x="0" y="0" width="220" height="220" fill="none" stroke="#111" stroke-width="8"/>
  <rect x="18" y="18" width="52" height="52" fill="none" stroke="#111" stroke-width="10"/>
  <rect x="150" y="18" width="52" height="52" fill="none" stroke="#111" stroke-width="10"/>
  <rect x="18" y="150" width="52" height="52" fill="none" stroke="#111" stroke-width="10"/>
  <rect x="88" y="86" width="10" height="10" fill="#111"/>
  <rect x="108" y="86" width="10" height="10" fill="#111"/>
  <rect x="128" y="86" width="10" height="10" fill="#111"/>
  <rect x="88" y="106" width="10" height="10" fill="#111"/>
  <rect x="128" y="106" width="10" height="10" fill="#111"/>
  <rect x="88" y="126" width="10" height="10" fill="#111"/>
  <rect x="108" y="126" width="10" height="10" fill="#111"/>
  <rect x="128" y="126" width="10" height="10" fill="#111"/>
  <rect x="150" y="90" width="10" height="10" fill="#111"/>
  <rect x="170" y="90" width="10" height="10" fill="#111"/>
  <rect x="190" y="90" width="10" height="10" fill="#111"/>
  <rect x="150" y="110" width="10" height="10" fill="#111"/>
  <rect x="190" y="110" width="10" height="10" fill="#111"/>
  <rect x="150" y="130" width="10" height="10" fill="#111"/>
  <rect x="170" y="130" width="10" height="10" fill="#111"/>
  <rect x="190" y="130" width="10" height="10" fill="#111"/>
</svg>
